<svg xmlns="http://www.w3.org/2000/svg" viewBox="0 0 450.43 494.98" role="img" aria-label="Tracer">
  <g transform="translate(-2.58 495) scale(.1 -.1)" fill="#f97316">
    <path d="M1014 4918c44-55 132-189 164-253 29-59 86-282 139-545 18-93 36-149 70-220 40-83 56-106 137-184 101-98 303-239 575-400 151-89 257-163 248-173-2-2-120 57-262 130-260 136-483 279-599 387l-49 45 69-95c215-296 401-501 522-574 61-37 77-56 46-56-28 0-133 30-389 110-137 43-352 104-477 134-276 67-570 158-738 228-131 55-255 131-353 219-32 28-60 50-62 48-9-10 182-301 247-377 39-46 114-139 166-205 86-109 235-284 407-478 83-93 177-170 262-213 73-36 256-92 348-105l50-8-36-16c-137-61-568-82-804-39-66 12-235 51-375 86-140 35-268 67-285 70-25 6-4-19 125-151 85-87 184-192 220-232 70-81 157-150 227-181 81-36 235-78 377-104 216-40 199-43-119-21l-70 5 115-56c125-61 279-123 460-186 63-22 120-45 126-51 6-7 34-77 62-156l51-145-42-35c-106-87-178-174-303-361-127-191-216-330-211-330 24 0 356 123 455 168 86 39 134 57 137 49 2-7 13-106 25-222 30-290 34-300 49-115 16 209 22 260 31 260 8 0 20-75 20-128 0-74 9-20 25 148 9 96 17 175 18 175 1 0 32 15 70 33 37 17 69 32 71 32 3 0 0-17-6-38-20-73 12-326 62-489 56-183 163-302 271-303 76 0 214 63 369 169 103 71 212 121 263 121 55 0 150-45 287-134 116-77 256-145 310-152 73-10 125 10 182 69 82 86 125 190 168 407 63 322 19 442-154 416-53-8-165-80-261-168-98-89-137-118-242-178-205-116-356-118-563-7-103 55-160 96-290 211-47 42-113 90-147 108-35 18-63 35-63 38 0 15 185 63 350 90 190 32 240 39 490 65 246 26 487 77 630 133 201 80 328 162 359 234l16 38 32-19c26-16 33-28 39-67 9-59 0-234-27-514-23-250-37-351-78-550-16-80-28-146-26-148 10-10 95 308 110 412 4 26 11 49 16 52 13 8 11-225-2-286-6-27-9-56-6-63 7-22 64 172 131 443 115 469 176 691 236 863 117 332 144 464 101 487-37 19-130 166-155 242-80 245-157 454-220 603-40 94-85 209-101 257-16 48-31 86-33 83-6-5 57-305 69-327 8-14 6-18-9-18-11 0-55 40-108 100-49 55-127 131-174 168-47 38-148 120-224 182-466 376-723 539-1241 784-449 212-538 260-785 418-164 105-281 188-402 285-71 57-131 103-134 103-4 0 5-15 20-32Z"/>
  </g>
</svg>
